[img]http://leetleech.org/images/45334623923588694731.jpg[/img]

[b]The Least Among You (2009) DVDRip XviD-SKITTLES[/b]

[img]http://leetleech.org/images/39185456263711143641.png[/img]

Video
ID                               : 0
Format                           : MPEG-4 Visual
Format profile                   : Advanced Simple@L5
Format settings, BVOP            : Yes
Format settings, QPel            : No
Format settings, GMC             : No warppoints
Format settings, Matrix          : Default (H.263)
Muxing mode                      : Packed bitstream
Codec ID                         : XVID
Codec ID/Hint                    : XviD
Duration                         : 1h 37mn
Bit rate                         : 877 Kbps
Width                            : 640 pixels
Height                           : 272 pixels
Display aspect ratio             : 2.35:1
Frame rate                       : 23.976 fps
Color space                      : YUV
Chroma subsampling               : 4:2:0
Bit depth                        : 8 bits
Scan type                        : Progressive
Bits/(Pixel*Frame)               : 0.210
Stream size                      : 609 MiB (86%)
Writing library                  : XviD 1.2.1 (UTC 2008-12-04)

Audio
ID                               : 1
Format                           : MPEG Audio
Format version                   : Version 1
Format profile                   : Layer 3
Mode                             : Joint stereo
Mode extension                   : MS Stereo
Codec ID                         : 55
Codec ID/Hint                    : MP3
Duration                         : 1h 37mn
Bit rate mode                    : Constant
Bit rate                         : 128 Kbps
Channel(s)                       : 2 channels
Sampling rate                    : 48.0 KHz
Stream size                      : 88.9 MiB (13%)
Alignment                        : Aligned on interleaves
Interleave, duration             : 42 ms (1.00 video frame)
Interleave, preload duration     : 504 ms
 
http://www.imdb.com/title/tt1153043/

[img]http://leetleech.org/images/46941880339015444838.png[/img]

Cedric Sanders	... 	Richard Kelly
Lauren Holly	... 	Kate Allison
Louis Gossett Jr.... 	Samuel Benton
William Devane	... 	Alan Beckett
Cory Hardrict	... 	Roscoe
John Brently Reynolds	... 	Fred Leak
Starletta DuPois... 	Bessie Benton
Carter MacIntyre... 	James
Siena Goines	... 	Ruth Kelly
Bernardo de Paula... 	Nick Giffuni
Nicolas Levene	... 	Bill
Scott Waara	... 	Prof. Powell
Ricco Ross	... 	Marvin Kelly
Maddy Curley	... 	Kimmy
Kelicea Meadows	... 	Lisa Kreemack

[img]http://leetleech.org/images/70187465700988366433.png[/img]

Genre:
Biography | Drama 

Plot: 
Inspired by a true story about a black college graduate forced 
to serve probation after the 1965 Watts riots at an all-white 
seminary that wants black followers not leaders. Encouraged by 
the seminary president, Alan Beckett, to break the color line 
while Prof. Kate Allison, the former missionary, remains skeptical 
and aloof, Richard Kelly nears the breaking point when he meets 
Samuel, an elderly ex-alcoholic janitor who lives in the basement 
of his dormitory. As Samuel guides Richard through the trials of 
racism and the personal life haunts him, he undergoes a 
transformation that forces him to choose between his dreams and 
his destiny.  

[img]http://leetleech.org/images/64476088802225496360.png[/img]

[img]http://leetleech.org/images/51902508775791710580.png[/img]
[img]http://leetleech.org/images/24517726773330765292.png[/img]
[img]http://leetleech.org/images/94448200605431758544.png[/img]
[img]http://leetleech.org/images/31474640843675693698.png[/img]
[img]http://leetleech.org/images/05981318199139012499.png[/img]
[img]http://leetleech.org/images/18198510462551258653.png[/img]